<svg id="Layer_1" data-name="Layer 1" xmlns="http://www.w3.org/2000/svg" xmlns:xlink="http://www.w3.org/1999/xlink" viewBox="0 0 1080 1080"><defs><style>.cls-1fsdjsdjkg43g,.cls-2sdsdgu43gha{fill:none;stroke-miterlimit:10;}.cls-1fsdjsdjkg43g{stroke-width:36px;stroke:url(#New_Gradient_Swatch_1);}.cls-2sdsdgu43gha{stroke-width:35px;stroke:url(#New_Gradient_Swatch_1-2);}</style><linearGradient id="New_Gradient_Swatch_1" x1="379.62" y1="635.76" x2="746.35" y2="635.76" gradientUnits="userSpaceOnUse"><stop offset="0" stop-color="#519115"/><stop offset="1" stop-color="#87cc44"/></linearGradient><linearGradient id="New_Gradient_Swatch_1-2" x1="93.5" y1="540" x2="1032.5" y2="540" xlink:href="#New_Gradient_Swatch_1"/></defs><title>Artboard 1</title><path class="cls-1fsdjsdjkg43g" d="M628.3,513.1a10,10,0,0,1-10-10V451.8a143.7,143.7,0,0,1,1.2-21.3,40.8,40.8,0,0,1,5.9-14.9q4.5-7.4,14.7-10.2c6.7-1.9,15.7-2.8,26.9-2.8h51.3a10,10,0,0,0,10-10V290a10,10,0,0,0-10-10h-88q-85,0-122.1,40.4T471,439.3v63.8a10,10,0,0,1-10,10H407.7a10.1,10.1,0,0,0-10.1,10.1V625.7a10.1,10.1,0,0,0,10.1,10.1H461a10,10,0,0,1,10,10V981.5a10.1,10.1,0,0,0,10.1,10H608.2a10.1,10.1,0,0,0,10.1-10V645.8a10,10,0,0,1,10-10h78.9a10,10,0,0,0,10-9L728,524.2a10,10,0,0,0-10-11.1Z"/><rect class="cls-2sdsdgu43gha" x="111" y="88" width="904" height="904" rx="12" ry="12"/></svg>