<svg id="Layer_1" data-name="Layer 1" xmlns="http://www.w3.org/2000/svg" xmlns:xlink="http://www.w3.org/1999/xlink" viewBox="0 0 1080 1080"><defs><style>.cls-1asfasffae3,.cls-2askkgig8883uhd,.cls-38f78fuhrhfjh{stroke-miterlimit:10;}.cls-1asfasffae3{fill:url(#New_Gradient_Swatch_1);stroke:url(#New_Gradient_Swatch_1-2);}.cls-2askkgig8883uhd{fill:url(#New_Gradient_Swatch_1-3);stroke:url(#New_Gradient_Swatch_1-4);}.cls-38f78fuhrhfjh{fill:url(#New_Gradient_Swatch_1-5);stroke:url(#New_Gradient_Swatch_1-6);}</style><linearGradient id="New_Gradient_Swatch_1" x1="164" y1="581.5" x2="965" y2="581.5" gradientUnits="userSpaceOnUse"><stop offset="0" stop-color="#519115"/><stop offset="1" stop-color="#87cc44"/></linearGradient><linearGradient id="New_Gradient_Swatch_1-2" x1="163.5" y1="581.5" x2="965.5" y2="581.5" xlink:href="#New_Gradient_Swatch_1"/><linearGradient id="New_Gradient_Swatch_1-3" x1="345.48" y1="581.5" x2="783.52" y2="581.5" xlink:href="#New_Gradient_Swatch_1"/><linearGradient id="New_Gradient_Swatch_1-4" x1="344.98" y1="581.5" x2="784.02" y2="581.5" xlink:href="#New_Gradient_Swatch_1"/><linearGradient id="New_Gradient_Swatch_1-5" x1="724.04" y1="349.42" x2="853.48" y2="349.42" xlink:href="#New_Gradient_Swatch_1"/><linearGradient id="New_Gradient_Swatch_1-6" x1="723.54" y1="349.42" x2="853.98" y2="349.42" xlink:href="#New_Gradient_Swatch_1"/></defs><title>Artboard 1 copy 8</title><path class="cls-1asfasffae3" d="M748.2,181H380.8C261.3,181,164,278.3,164,397.8V765.2C164,884.7,261.3,982,380.8,982H748.2C867.7,982,965,884.7,965,765.2V397.8C965,278.3,867.7,181,748.2,181ZM918,765.2C918,858.8,841.8,935,748.2,935H380.8C287.2,935,211,858.8,211,765.2V397.8C211,304.2,287.2,228,380.8,228H748.2C841.8,228,918,304.2,918,397.8Z"/><path class="cls-2askkgig8883uhd" d="M564.5,362.5c-120.8,0-219,98.2-219,219s98.2,219,219,219,219-98.2,219-219S685.3,362.5,564.5,362.5Zm0,391.1c-94.9,0-172.1-77.2-172.1-172.1s77.2-172.1,172.1-172.1,172.1,77.2,172.1,172.1S659.4,753.6,564.5,753.6Z"/><path class="cls-38f78fuhrhfjh" d="M788.8,284.7a64.7,64.7,0,1,0,64.7,64.7A64.8,64.8,0,0,0,788.8,284.7Zm0,82.5a17.8,17.8,0,1,1,17.7-17.8A17.8,17.8,0,0,1,788.8,367.2Z"/></svg>