<svg id="Layer_1" data-name="Layer 1" xmlns="http://www.w3.org/2000/svg" xmlns:xlink="http://www.w3.org/1999/xlink" viewBox="0 0 1080 1080"><defs><style>.cls-1fkfkfdjj4{fill:none;stroke-miterlimit:10;stroke-width:32.09px;stroke:url(#New_Gradient_Swatch_1);}</style><linearGradient id="New_Gradient_Swatch_1" x1="87.76" y1="512.36" x2="1050.67" y2="512.36" gradientUnits="userSpaceOnUse"><stop offset="0" stop-color="#519115"/><stop offset="1" stop-color="#87cc44"/></linearGradient></defs><title>Artboard 1 copy 7</title><path class="cls-1fkfkfdjj4" d="M1006.6,251.8a363.3,363.3,0,0,1-100.5,27.6A172.9,172.9,0,0,0,982.8,183a347.6,347.6,0,0,1-110.6,42.2A174.6,174.6,0,0,0,744.9,170c-96.6,0-174.3,78.4-174.3,174.4a184,184,0,0,0,4,39.8c-144.9-7.1-273.2-76.6-359.4-182.4a174.4,174.4,0,0,0,53.6,233.1c-28-.6-55.5-8.7-78.8-21.5v1.9c0,84.7,60.4,155.1,139.7,171.3a173.4,173.4,0,0,1-45.7,5.8c-11.2,0-22.4-.7-33-3,22.6,69.1,86.7,119.8,162.9,121.5a350.3,350.3,0,0,1-216.2,74.4,336.1,336.1,0,0,1-41.7-2.4c77.2,49.8,168.8,78.2,267.5,78.2,320.9,0,496.3-265.8,496.3-496.2q0-11.5-.6-22.5C953.8,317.8,982.9,287.1,1006.6,251.8Z"/></svg>