<?xml version="1.0" encoding="utf-8"?>
<!-- Generator: Adobe Illustrator 22.1.0, SVG Export Plug-In . SVG Version: 6.00 Build 0)  -->
<svg version="1.1" id="Layer_1" xmlns="http://www.w3.org/2000/svg" xmlns:xlink="http://www.w3.org/1999/xlink" x="0px" y="0px"
	 viewBox="0 0 1080 1080" style="enable-background:new 0 0 1080 1080;" xml:space="preserve">
<style type="text/css">
	.st0sjdjsfdj4{fill:url(#SVGID_1_);}
</style>
<title>Artboard 1 copy 6</title>
<linearGradient id="SVGID_1_" gradientUnits="userSpaceOnUse" x1="124.6683" y1="524" x2="967.3316" y2="524">
	<stop  offset="0" style="stop-color:#519115"/>
	<stop  offset="1" style="stop-color:#87CC44"/>
</linearGradient>
<path class="st0sjdjsfdj4" d="M942,679.9c17.8-22.7,26.3-47,25.2-72c-1.1-27.6-13.4-49.1-23.6-62.4c11.8-29.4,16.3-75.6-23-111.5
	c-28.8-26.3-77.8-38.1-145.6-34.8c-47.7,2.2-87.6,11.1-89.2,11.4h-0.2c-9.1,1.6-18.7,3.6-28.5,5.8c-0.7-11.6,1.3-40.4,22.7-105.3
	c25.4-77.2,23.9-136.3-4.7-175.8c-30.1-41.5-78.1-44.8-92.3-44.8c-13.6,0-26.1,5.6-35,16c-20.1,23.4-17.8,66.5-15.2,86.5
	c-23.9,64.2-91,221.5-147.7,265.2c-1.1,0.7-2,1.6-2.9,2.5c-16.7,17.6-27.9,36.6-35.5,53.3c-10.7-5.8-22.8-9.1-35.9-9.1H200.1
	c-41.7,0-75.4,33.9-75.4,75.4V875c0,41.7,33.9,75.4,75.4,75.4h110.6c16.1,0,31.2-5.1,43.5-13.8l42.6,5.1
	c6.5,0.9,122.5,15.6,241.6,13.2c21.6,1.6,41.9,2.5,60.7,2.5c32.4,0,60.7-2.5,84.3-7.6c55.5-11.8,93.4-35.3,112.6-70
	c14.7-26.5,14.7-52.8,12.3-69.4c36.1-32.6,42.4-68.7,41.1-94.1C948.7,701.7,945.5,689.1,942,679.9z M895.6,658.7
	c-7.6,8-9.1,20.1-3.3,29.5c0,0.2,7.4,12.9,8.3,30.3c1.3,23.7-10.2,44.8-34.1,62.7c-8.5,6.5-12,17.8-8.3,27.9
	c0,0.2,7.8,24.1-4.9,46.8c-12.1,21.8-39.2,37.3-80.1,46c-32.8,7.1-77.4,8.3-132.2,4c-0.7,0-1.6,0-2.5,0
	c-116.6,2.5-234.4-12.7-235.7-12.9h-0.2l-18.3-2.2c1.1-5.1,1.6-10.5,1.6-16V580.2c0-7.8-1.3-15.4-3.4-22.5
	c3.3-12.1,12.3-39.2,33.7-62.2c81.4-64.5,161-282.2,164.4-291.7c1.5-3.8,1.8-8,1.1-12.1c-3.1-20.3-2-45.1,2.4-52.6
	c9.6,0.2,35.5,2.9,51.1,24.5c18.5,25.6,17.8,71.2-2.2,131.8c-30.5,92.3-33,140.9-8.9,162.2c12,10.7,27.9,11.2,39.5,7.1
	c11.1-2.5,21.6-4.7,31.5-6.3c0.7-0.2,1.6-0.4,2.4-0.5c55.7-12.1,155.4-19.6,190,12c29.4,26.8,8.5,62.4,6.2,66.2
	c-6.7,10.2-4.7,23.4,4.4,31.5c0.2,0.2,19.2,18.1,20.1,42.2C919,625.9,911.4,642.4,895.6,658.7z"/>
</svg>
