<svg id="Layer_1" data-name="Layer 1" xmlns="http://www.w3.org/2000/svg" xmlns:xlink="http://www.w3.org/1999/xlink" viewBox="0 0 1080 1080"><defs><style>.cls-1kgkgkmsdkk43249gk,.cls-2sdjjgu43gssd{fill:none;stroke-miterlimit:10;stroke-width:35.24px;}.cls-1kgkgkmsdkk43249gk{stroke:url(#New_Gradient_Swatch_1);}.cls-2sdjjgu43gssd{stroke:url(#New_Gradient_Swatch_1-2);}</style><linearGradient id="New_Gradient_Swatch_1" x1="132.38" y1="538" x2="947.36" y2="538" gradientUnits="userSpaceOnUse"><stop offset="0" stop-color="#519115"/><stop offset="1" stop-color="#87cc44"/></linearGradient><linearGradient id="New_Gradient_Swatch_1-2" x1="132.38" y1="603.34" x2="818.08" y2="603.34" xlink:href="#New_Gradient_Swatch_1"/></defs><title>Artboard 1 copy 5</title><path class="cls-1kgkgkmsdkk43249gk" d="M894.9,138H444.8a34.9,34.9,0,0,0-34.9,34.9V418.2h-225A34.8,34.8,0,0,0,150,453V903.1A34.9,34.9,0,0,0,184.9,938H635a34.8,34.8,0,0,0,34.8-34.9V657.8H894.9A34.8,34.8,0,0,0,929.7,623V172.9A34.8,34.8,0,0,0,894.9,138Z"/><path class="cls-2sdjjgu43gssd" d="M789.4,268.7,651,276.1a9.4,9.4,0,0,0-6.2,16l42.1,42.1-72,72.1a40.7,40.7,0,0,1-28.7,11.9H184.9A34.8,34.8,0,0,0,150,453V903.1A34.9,34.9,0,0,0,184.9,938H635a34.8,34.8,0,0,0,34.8-34.9V453h0a14,14,0,0,1,4.1-9.8l61-61L777,424.3a9.4,9.4,0,0,0,16-6.1l7.4-138.5A10.4,10.4,0,0,0,789.4,268.7Z"/></svg>