<svg id="Layer_1" data-name="Layer 1" xmlns="http://www.w3.org/2000/svg" xmlns:xlink="http://www.w3.org/1999/xlink" viewBox="0 0 1080 1080"><defs><style>.cls-1fdjkgjkdfj43,.cls-2dfndfjknbjkn43njg,.cls-3kdfkdfk43g,.cls-4dsgjksjgdjk43g{stroke-miterlimit:10;}.cls-1fdjkgjkdfj43{fill:url(#New_Gradient_Swatch_1);stroke:url(#New_Gradient_Swatch_1-2);}.cls-2dfndfjknbjkn43njg{fill:url(#New_Gradient_Swatch_1-3);stroke:url(#New_Gradient_Swatch_1-4);}.cls-3kdfkdfk43g{fill:url(#New_Gradient_Swatch_1-5);stroke:url(#New_Gradient_Swatch_1-6);}.cls-4dsgjksjgdjk43g{fill:url(#New_Gradient_Swatch_1-7);stroke:url(#New_Gradient_Swatch_1-8);}</style><linearGradient id="New_Gradient_Swatch_1" x1="307.82" y1="502.33" x2="750.54" y2="502.33" gradientUnits="userSpaceOnUse"><stop offset="0" stop-color="#519115"/><stop offset="1" stop-color="#87cc44"/></linearGradient><linearGradient id="New_Gradient_Swatch_1-2" x1="307.32" y1="502.33" x2="751.04" y2="502.33" xlink:href="#New_Gradient_Swatch_1"/><linearGradient id="New_Gradient_Swatch_1-3" x1="510.95" y1="873.37" x2="546.87" y2="873.37" xlink:href="#New_Gradient_Swatch_1"/><linearGradient id="New_Gradient_Swatch_1-4" x1="510.45" y1="873.37" x2="547.37" y2="873.37" xlink:href="#New_Gradient_Swatch_1"/><linearGradient id="New_Gradient_Swatch_1-5" x1="583.88" y1="828.33" x2="619.63" y2="828.33" xlink:href="#New_Gradient_Swatch_1"/><linearGradient id="New_Gradient_Swatch_1-6" x1="583.38" y1="828.33" x2="620.13" y2="828.33" xlink:href="#New_Gradient_Swatch_1"/><linearGradient id="New_Gradient_Swatch_1-7" x1="438.69" y1="828.36" x2="474.51" y2="828.36" xlink:href="#New_Gradient_Swatch_1"/><linearGradient id="New_Gradient_Swatch_1-8" x1="438.19" y1="828.36" x2="475.01" y2="828.36" xlink:href="#New_Gradient_Swatch_1"/></defs><title>Artboard 1 copy 4</title><path class="cls-1fdjkgjkdfj43" d="M696,563.7c-3.2-3.8-4.5-7.3-4.1-12.3a545.6,545.6,0,0,0-2.4-103.8A530.9,530.9,0,0,0,676.1,378c-4.3-16.5-8.7-33.1-16-48.7-.7-2.4-1.3-4.9-2.2-7.3-25.7-65.6-62.8-123.9-112.1-174.3-11.9-12.2-21.1-12.3-32.9-.2Q418.3,244.7,383,375.9c-9.8,36.6-16.1,73.7-17,111.7-1.9,21.2-.8,42.3.6,63.5.4,5-.6,8.5-3.8,12.3-56.4,67.9-69.2,143.6-39.3,226.3,9.6,26.4,25.1,49.4,44.3,69.9,6.5,6.8,15,8.3,22.7,4.5s10.3-10.6,8.7-20.4c-.6-3.6-1.3-7.3-2-11-5.4-29.4-1-57.3,12.2-84.1,4.9-10,10.1-14,22.8-13.8,64.7,1.2,129.4.6,194.1.5,2.9,0,6.1.6,8.5-.5,4.3-1.7,6.1.1,8.2,3.4,15.5,25.1,22.6,52.3,20.1,81.8-.8,8.5-2.9,16.9-4,25.4s.8,15.2,8.8,18.7,15.2,2.6,21.5-3.3a85.1,85.1,0,0,0,7.5-8.3C768.7,767,768.4,648.8,696,563.7ZM644,336.2c-1.3.6-2.7,1-4.1,1.5C641.3,337.2,642.7,336.8,644,336.2ZM472.2,257.8a472.9,472.9,0,0,1,52-70.1c3.4-3.9,5.4-5.2,9.7-.4a497,497,0,0,1,70.6,102.9c2,4,3.3,6.5-3.3,6.5-49.5-.2-99-.1-149.9-.1C457.6,282.3,464.8,270,472.2,257.8ZM391.3,711c-15.7,19.7-25.2,42.6-29.3,67.7a26.4,26.4,0,0,1-1.4,4.3c-23.6-43.9-24-119.9,13.3-174.4,7.2,25.5,13.5,50.4,21.5,74.9C398.9,694.2,398.7,701.7,391.3,711Zm230.9-18.3c-2.2,5.6-5.2,6.9-10.8,6.9q-82.4-.3-164.9,0c-5.8,0-8.3-1.9-10.5-7.2-25.5-63.6-37.2-129.5-34.6-198,.2-5.7.2-11.4.3-17.1,3.4-45.8,13.9-90.2,28-133.7,2.3-7,5.7-11.9,15.5-11.7,56.3.6,112.6.4,168.9.1,6.6,0,10.9,1.4,12.8,7.9,8.6,26.6,17,53.3,22,80.8C665.8,513.9,657.5,604.6,622.2,692.7Zm68.9,65.2c-5.9-19.7-15.7-37.4-28.4-53.5-2.4-2.9-4.5-5.4-3-9.9,9.5-26.9,16.3-54.7,23.7-82.4a37.5,37.5,0,0,1,1.5-4.4c34.3,57.3,38.5,115.4,13.6,177.2C695.8,774.9,693.7,766.4,691.1,757.9Z"/><path class="cls-2dfndfjknbjkn43njg" d="M511,873.6c0-28.9-.1-57.8,0-86.8.1-13,6.8-20.8,17.6-21.1s16.5,5.7,17.9,15a73.9,73.9,0,0,1,.4,9.4q0,82.5-.1,164.9a69.5,69.5,0,0,1-.5,11.2,17.5,17.5,0,0,1-34.5.9,57.7,57.7,0,0,1-.7-10.2c-.1-27.8-.1-55.5-.1-83.3Z"/><path class="cls-3kdfkdfk43g" d="M619.5,828.5c0,14.5.4,29.1-.1,43.7s-12.1,22.2-23.9,17.6c-7.4-2.8-11.5-8.3-11.5-16.4-.1-30-.2-60,0-90,.1-10.4,7.3-17.5,17-17.8s17.9,6.5,18.3,17.4c.5,15.2.1,30.3.1,45.5Z"/><path class="cls-4dsgjksjgdjk43g" d="M474.5,828.4c-.1,14.3,0,28.6-.1,42.9-.1,11.7-7.6,19.9-17.9,19.8s-17.5-7.8-17.6-19.3c-.3-29.2-.3-58.3,0-87.5.1-11.4,7.8-18.8,18.1-18.7s17.3,7.5,17.4,19.1C474.6,799.3,474.5,813.9,474.5,828.4Z"/></svg>