<svg id="Layer_1" data-name="Layer 1" xmlns="http://www.w3.org/2000/svg" xmlns:xlink="http://www.w3.org/1999/xlink" viewBox="0 0 1080 1080"><defs><style>.cls-1f9fijgjkf,.cls-2figi9re9jkfkg,.cls-3dkifkifi4984jf,.cls-494okfkgjkdldf,.cls-5fiogii4i49jfj{stroke-miterlimit:10;}.cls-1f9fijgjkf{fill:url(#New_Gradient_Swatch_1);stroke:url(#New_Gradient_Swatch_1-2);}.cls-2figi9re9jkfkg{fill:url(#New_Gradient_Swatch_1-3);stroke:url(#New_Gradient_Swatch_1-4);}.cls-3dkifkifi4984jf{fill:url(#New_Gradient_Swatch_1-5);stroke:url(#New_Gradient_Swatch_1-6);}.cls-494okfkgjkdldf{fill:url(#New_Gradient_Swatch_1-7);stroke:url(#New_Gradient_Swatch_1-8);}.cls-5fiogii4i49jfj{fill:url(#New_Gradient_Swatch_1-9);stroke:url(#New_Gradient_Swatch_1-10);}</style><linearGradient id="New_Gradient_Swatch_1" x1="438.5" y1="928.32" x2="586.86" y2="928.32" gradientUnits="userSpaceOnUse"><stop offset="0" stop-color="#519115"/><stop offset="1" stop-color="#87cc44"/></linearGradient><linearGradient id="New_Gradient_Swatch_1-2" x1="438" y1="928.32" x2="587.86" y2="928.32" xlink:href="#New_Gradient_Swatch_1"/><linearGradient id="New_Gradient_Swatch_1-3" x1="302.42" y1="608.72" x2="986.62" y2="608.72" xlink:href="#New_Gradient_Swatch_1"/><linearGradient id="New_Gradient_Swatch_1-4" x1="301.92" y1="608.72" x2="987.12" y2="608.72" xlink:href="#New_Gradient_Swatch_1"/><linearGradient id="New_Gradient_Swatch_1-5" x1="140.65" y1="364.25" x2="421.16" y2="364.25" xlink:href="#New_Gradient_Swatch_1"/><linearGradient id="New_Gradient_Swatch_1-6" x1="139.39" y1="364.54" x2="422.4" y2="364.54" xlink:href="#New_Gradient_Swatch_1"/><linearGradient id="New_Gradient_Swatch_1-7" x1="453.8" y1="267.7" x2="687.26" y2="267.7" xlink:href="#New_Gradient_Swatch_1"/><linearGradient id="New_Gradient_Swatch_1-8" x1="452.48" y1="267.64" x2="687.84" y2="267.64" xlink:href="#New_Gradient_Swatch_1"/><linearGradient id="New_Gradient_Swatch_1-9" x1="68.95" y1="675.88" x2="302.42" y2="675.88" xlink:href="#New_Gradient_Swatch_1"/><linearGradient id="New_Gradient_Swatch_1-10" x1="67.64" y1="675.82" x2="303" y2="675.82" xlink:href="#New_Gradient_Swatch_1"/></defs><title>Artboard 1 copy 3</title><path class="cls-1f9fijgjkf" d="M586.9,927.7a1.2,1.2,0,0,0-.2,1.3H438.5v-1.4Z"/><path class="cls-2figi9re9jkfkg" d="M586.9,927.7H438.5a34.7,34.7,0,0,1-4.2-3.4Q372.9,863,311.7,801.6c-11.5-11.6-12.6-19.7-1.6-31.7,19.6-21.5,40.2-42.1,60.4-63.1L481.4,591.7,587,482c50.6-52.5,101.2-104.8,151.6-157.5,8.7-9.1,17.2-18.3,26.2-27.1s20.8-10.4,30.8-.2q66.6,68.3,133,136.6l15.1,15.6c11.9,12.3,23.8,24.7,35.8,37,9.4,9.8,9.6,29.4.1,39.2-21.4,22-43.1,43.8-64.4,66s-40.5,41.1-60.4,62c-16.3,17.2-33.5,33.5-49.6,50.8-46,49.5-94.2,96.6-140.5,145.7-24.1,25.6-49.1,50.3-73.8,75.4C589.8,926.7,588.8,928.1,586.9,927.7Zm-68.3-48.1c15.4,0,30.8-.1,46.1,0,3.9,0,7.4-.5,10.2-3.4q51.9-52.1,103.9-103.9c3.8-3.8,3.7-6.7-.2-10.5-11.5-11.2-22.8-22.6-34.2-34L531.9,615.2c-6.4-6.4-7.3-6.5-13.3-.4q-76.5,76.5-153.2,153c-4,4-4.4,6.3-.1,10.6,32.4,32,64.7,64.4,96.8,96.7a14.3,14.3,0,0,0,11.1,4.5C488.4,879.5,503.5,879.6,518.6,879.6Z"/><path class="cls-3dkifkifi4984jf" d="M421.2,366.7l-65.6,25.5c-9.4,3.7-18.7,7.6-28.3,11-5.1,1.9-8.1,5-10.2,10.1-10.7,26.9-21.8,53.6-32.7,80.4-.9,2.1-2.1,4.1-3.8,7.3-3-7.1-5.7-13.2-8.3-19.4-9.7-23.4-19.5-46.7-28.9-70.2a12.6,12.6,0,0,0-8-7.8c-30-11.6-59.9-23.4-89.9-35.1l-4.8-2.2c7.9-3.2,14.8-6.2,21.9-8.9l73.3-28.2a11.3,11.3,0,0,0,7.1-6.9c11.8-30.9,24-61.7,36.1-92.5.3-.8.3-1.8,2.3-2.3,3.8,9.5,7.8,19.1,11.6,28.8q12.8,33,25.4,66.2c1.5,3.8,4.3,5.5,8,6.9q44.1,16.8,88.1,34C416.4,364.1,418.2,365.2,421.2,366.7Z"/><path class="cls-494okfkgjkdldf" d="M570.5,383.7l-16.1-40.3-13.9-35.1c-2-5-5.2-8-10.4-10-25-9.7-49.8-19.9-76.3-30.5,9.7-4.1,17.9-7.7,26.3-11,17.2-6.9,34.5-13.9,51.8-20.5,4.9-1.8,7-5.4,8.7-9.8q13.9-35.4,28.2-70.6c.5-1.4.6-3.3,3.2-4.2l16.1,40.1c4.7,11.7,9.4,23.5,14,35.3,1.9,5.1,5.3,8,10.4,10,23.8,9.1,47.4,18.6,71,28.1,1.3.5,3.2.8,3.8,3.1l-47.5,19-31.3,12.4c-5,1.9-5.7,7-7.3,11-9.7,23.6-19,47.3-28.4,71C572.5,382.5,572.6,383.5,570.5,383.7Z"/><path class="cls-5fiogii4i49jfj" d="M185.7,791.8l-16.1-40.2c-4.7-11.7-9.3-23.4-14-35.2-1.9-4.9-5.1-7.9-10.4-10-25-9.6-49.8-19.8-76.2-30.5l26.2-11c17.3-6.9,34.5-13.8,51.9-20.4,4.9-1.8,6.9-5.4,8.7-9.8q13.9-35.4,28.2-70.6c.5-1.4.5-3.3,3.2-4.2,5.3,13.4,10.7,26.7,16,40.1,4.7,11.7,9.5,23.5,14,35.3,2,5.1,5.4,8,10.5,10,23.7,9.1,47.4,18.6,71,28.1,1.2.5,3.2.7,3.7,3.1l-47.5,19q-15.6,6.3-31.2,12.3c-5.1,2-5.7,7.1-7.4,11.1-9.6,23.6-18.9,47.3-28.4,70.9C187.6,790.7,187.7,791.7,185.7,791.8Z"/></svg>