<svg id="Layer_1" data-name="Layer 1" xmlns="http://www.w3.org/2000/svg" xmlns:xlink="http://www.w3.org/1999/xlink" viewBox="0 0 1080 1080"><defs><style>.cls-1fdgdfjnbjk42,.cls-2dfgu043gu304u8,.cls-383u4gsgnskjnvsd,.cls-408fdjdfkbnjdfknbdfnbjk{stroke-miterlimit:10;}.cls-1fdgdfjnbjk42{fill:url(#New_Gradient_Swatch_1);stroke:url(#New_Gradient_Swatch_1-2);}.cls-2dfgu043gu304u8{fill:url(#New_Gradient_Swatch_1-3);stroke:url(#New_Gradient_Swatch_1-4);}.cls-383u4gsgnskjnvsd{fill:url(#New_Gradient_Swatch_1-5);stroke:url(#New_Gradient_Swatch_1-6);}.cls-408fdjdfkbnjdfknbdfnbjk{fill:url(#New_Gradient_Swatch_1-7);stroke:url(#New_Gradient_Swatch_1-8);}</style><linearGradient id="New_Gradient_Swatch_1" x1="129.4" y1="669.22" x2="754.78" y2="669.22" gradientUnits="userSpaceOnUse"><stop offset="0" stop-color="#519115"/><stop offset="1" stop-color="#87cc44"/></linearGradient><linearGradient id="New_Gradient_Swatch_1-2" x1="128.9" y1="669.22" x2="755.28" y2="669.22" xlink:href="#New_Gradient_Swatch_1"/><linearGradient id="New_Gradient_Swatch_1-3" x1="756.78" y1="727.55" x2="949.39" y2="727.55" xlink:href="#New_Gradient_Swatch_1"/><linearGradient id="New_Gradient_Swatch_1-4" x1="756.04" y1="727.28" x2="950.53" y2="727.28" xlink:href="#New_Gradient_Swatch_1"/><linearGradient id="New_Gradient_Swatch_1-5" x1="287.13" y1="258.13" x2="479.19" y2="258.13" xlink:href="#New_Gradient_Swatch_1"/><linearGradient id="New_Gradient_Swatch_1-6" x1="286.47" y1="258.01" x2="479.82" y2="258.01" xlink:href="#New_Gradient_Swatch_1"/><linearGradient id="New_Gradient_Swatch_1-7" x1="756.64" y1="259.14" x2="950.03" y2="259.14" xlink:href="#New_Gradient_Swatch_1"/><linearGradient id="New_Gradient_Swatch_1-8" x1="756.02" y1="259.43" x2="951.28" y2="259.43" xlink:href="#New_Gradient_Swatch_1"/></defs><title>Artboard 1 copy 2</title><path class="cls-1fdgdfjnbjk42" d="M742.4,457.4c-20.7-20.8-41.4-41.5-62.8-61.6-7.7-7.3-14.4-15.6-21.9-23.2-21.4-21.5-41.7-21.5-63.1-.2-37.2,37.1-74.6,74.2-111.7,111.4-18.9,18.9-37.4,38.1-56.1,57.1a38.1,38.1,0,0,0-3.2,2.4Q282.9,684.2,142.1,825c-17,17-16.9,39,.1,56.2,29.3,29.6,58.9,58.9,88.3,88.4,5,5,10.7,8.9,17.6,10.8,16.1,4.6,29.1-1.1,40.5-12.5C410.9,844.7,534.8,723.1,656.3,599.1c28-28.5,56.9-56.2,85.4-84.3,7.8-7.8,13.4-16.6,13-28.2S750.4,465.4,742.4,457.4ZM616.8,577.3c-5.9,6-9.1,5.8-14.3-.3-21.1-24.5-45.1-46.1-67.6-69.2-1.9-1.9-4-3.6-5.9-5.3-.1-2.9,2.2-4.1,3.9-5.8,28.1-28.1,56.3-56.2,84.3-84.5,3.9-4,6-4,9.9,0q35.7,36.3,72,71.9c4.7,4.6,4.4,7.3-.2,11.1-3.1,2.5-5.6,5.7-8.3,8.6h0C666,528.3,641.1,552.5,616.8,577.3Z"/><path class="cls-2dfgu043gu304u8" d="M947.3,823.8c-28.7-16-57.4-31.9-85.8-48.3-6.4-3.7-11-3.5-17.4.1-26.3,15.3-52.9,29.9-79.5,44.7-2.2,1.2-4.1,3.6-7.8,2.5,14.2-25.5,27.4-51.3,42.9-75.7,8.8-14,8.6-24.5-.2-38.5-15.4-24.2-28.5-50-42.7-75.2,3.8-1.8,5.8,1.1,8.2,2.4q40.9,22.8,81.6,45.8c4.6,2.6,8,2.7,12.5.1,27.1-15.5,54.4-30.6,81.6-45.9l8.7-4.5c-2.1,4.1-3.2,6.6-4.5,9-15.4,27.5-30.6,55-46.2,82.4-2.3,4-2.2,6.8.1,10.7q22.5,39.8,44.6,79.6c1.8,3.2,3.5,6.4,5.2,9.6Z"/><path class="cls-383u4gsgnskjnvsd" d="M479.1,353c-3.9,1.6-6-1.1-8.3-2.5-27.1-15-54.2-29.9-81-45.3-4.6-2.7-7.8-2.4-12.2.1q-40.4,22.9-81,45.4c-2.4,1.3-4.6,3.8-8.6,2.3l23-41.3c8.8-15.6,17.4-31.2,26.3-46.7,2.4-4.1,2.9-7.3.4-11.7-17-29.8-33.7-59.8-50.6-89.8,2.8-1.7,4.5.8,6.4,1.8,27.2,15.4,54.5,30.8,81.6,46.5,5.8,3.3,10.4,3.4,16.6-.2,26.5-15.4,53.4-30.1,80.1-45.1l7.3-3.7c.6,3.2-1.3,5-2.4,6.9-15.5,27.7-30.9,55.5-46.6,83-2.6,4.5-2.5,8,0,12.4,15.4,26.9,30.4,54,45.5,80.9Z"/><path class="cls-408fdjdfkbnjdfknbdfnbjk" d="M758,162.5c27.8,15.8,56,31.1,83.4,47.9,8.8,5.4,14.7,3.8,22.4-.6,24.5-14.1,49.2-27.8,73.9-41.5,2.3-1.3,5.2-4.8,7.7-1.9s-1.4,5.1-2.6,7.5c-14.5,26.5-29,52.9-43.9,79.2-2.4,4.3-2.4,7.4.1,11.6,16.8,29.7,33.3,59.5,51,91.1l-9.7-5c-27.1-15.1-54.2-30.1-81-45.5-4.9-2.8-8.4-2.5-13,.1-29.4,16.8-59,33.2-88.7,49.9-1.4-2.8.7-4.3,1.6-6,15.4-27.5,30.5-55.1,46.3-82.3,3.7-6.3,3.1-10.7-.3-16.5-15.9-27.8-31.4-55.7-47-83.6-.6-1.1-1-2.2-1.6-3.3Z"/></svg>