<svg xmlns="http://www.w3.org/2000/svg" xmlns:xlink="http://www.w3.org/1999/xlink" width="57" height="37" viewBox="0 0 57 37">
    <defs>
        <path id="prefix__a" d="M0 0.397L56.48 0.397 56.48 37 0 37z"/>
        <path id="prefix__c" d="M0 37.603L56.48 37.603 56.48 1 0 1z"/>
    </defs>
    <g fill="none" fill-rule="evenodd" opacity=".699" transform="translate(0 -1)">
        <g transform="translate(0 .603)">
            <mask id="prefix__b" fill="#fff">
                <use xlink:href="#prefix__a"/>
            </mask>
            <path fill="#FFF" d="M49.291 26.885h-2.498c-.366 0-.679-.223-.815-.539-.487.345-1.131.54-1.928.54h-2.498c-.141 0-.267-.04-.385-.097-.117.057-.244.096-.384.096h-4.28c-.143 0-.275-.039-.392-.1-.119.06-.248.1-.39.1h-1.287c-.491 0-.887-.397-.887-.886v-.78c.002-.076.002-.192-.004-.287-.059-.004-.142-.008-.26-.008h-.484V26c0 .49-.397.886-.886.886h-1.289c-.491 0-.887-.397-.887-.886v-1.364c-.455.271-1.083.45-1.949.45h-.713v.914c0 .49-.397.886-.887.886h-2.493c-.253 0-.495-.108-.663-.297l-.929-1.046-.979 1.06c-.168.18-.403.285-.65.285h-5.081c-.49 0-.886-.398-.886-.887v-5.367c0-.49.397-.887.886-.887h5.158c.253 0 .492.106.659.294l.932 1.036.971-1.047c.168-.18.403-.283.65-.283h4.098c.898 0 1.53.2 1.979.493.145-.29.437-.493.784-.493h2.962c.682 0 1.342.026 1.961.357.067.04.11.09.172.132.146-.287.435-.489.781-.489h4.28c.332 0 .612.191.764.462.422-.286.982-.462 1.688-.462h2.57c.387 0 .705.25.828.592.44-.357 1.041-.592 1.842-.592h2.572c.489 0 .885.397.885.887v1.142c0 .313-.16.588-.405.746l.026.026c.44.452.64 1.01.64 1.76 0 1.614-1.083 2.58-2.899 2.578m-35.397-9.764l-.168-.38v.02c0 .49-.397.886-.886.886h-2.609c-.36 0-.683-.217-.82-.549l-.267-.648H7.658l-.271.652c-.136.33-.46.546-.816.546H5.177c-.298 0-.576-.15-.74-.398-.163-.25-.192-.564-.074-.837l2.296-5.367c.139-.325.46-.537.815-.537h1.904c.355 0 .674.211.815.536l.481 1.122v-.77c0-.49.396-.887.886-.887h2.095c.344 0 .659.202.805.515l.839 1.822.762-1.796c.138-.328.46-.54.814-.54h2.138c.18 0 .337.066.478.158.14-.092.297-.159.478-.159h4.284c.166 0 .313.058.444.137.133-.079.279-.137.445-.137h2.95c.763 0 1.394.027 1.997.375.061.037.105.084.16.124.144-.292.44-.499.789-.499h1.309c.443 0 .795.33.86.753.574-.497 1.356-.753 2.408-.753h1.241c.197 0 .382.065.529.176.149-.112.334-.176.53-.176h1.921c.354 0 .673.212.814.537l.471 1.102v-.753c0-.489.397-.886.887-.886h1.953c.311 0 .598.162.758.428l.61 1.011v-.554c0-.489.398-.886.888-.886h1.312c.49 0 .886.397.886.886v5.367c0 .49-.398.886-.886.886h-1.816c-.313 0-.6-.162-.761-.428l-.787-1.305v.847c0 .49-.398.886-.886.886h-2.611c-.357 0-.678-.215-.818-.545l-.271-.652h-1.478l-.262.643c-.133.335-.459.555-.818.555h-1.502c-.571 0-1.593-.103-2.322-.714-.083.404-.423.714-.852.714h-1.31c-.145 0-.278-.044-.401-.107-.121.063-.252.107-.398.107h-1.294c-.487 0-.883-.393-.887-.879l-.005-.677.002-.118c0-.072.002-.18-.004-.27-.059-.005-.138-.008-.249-.008h-.489v1.066c0 .49-.397.886-.886.886H25.14c-.166 0-.311-.058-.445-.137-.131.08-.278.137-.444.137h-4.284c-.181 0-.338-.068-.478-.159-.141.091-.298.16-.478.16h-1.315c-.49 0-.886-.397-.886-.886v-.022l-.17.38c-.142.321-.458.528-.81.528h-1.127c-.35 0-.668-.208-.809-.529M55.026.397H1.454C.65.397 0 1.048 0 1.851v33.694C0 36.348.65 37 1.454 37h53.572c.804 0 1.454-.65 1.454-1.454V1.851c0-.803-.65-1.454-1.454-1.454" mask="url(#prefix__b)"/>
        </g>
        <path fill="#FFF" d="M28.616 14.2c-.178.106-.386.11-.635.11h-1.559l.001-1.192h1.58c.222 0 .456.011.608.097.166.078.27.244.27.474 0 .234-.1.423-.265.51m.771.676c.334-.132.905-.575.905-1.43 0-.599-.244-.949-.649-1.189-.416-.24-.898-.257-1.553-.257h-2.95v5.367h1.284v-1.95H27.8c.462 0 .748.04.935.228.233.258.202.722.202 1.045l.006.677h1.294v-1.055c0-.479-.03-.717-.213-.984-.114-.157-.354-.345-.636-.452"/>
        <mask id="prefix__d" fill="#fff">
            <use xlink:href="#prefix__c"/>
        </mask>
        <path fill="#FFF" d="M31.04 17.367L32.349 17.367 32.349 12 31.04 12zM37.963 15.05l.88-2.139.89 2.14h-1.77zM46.217 12v3.738L43.96 12h-1.953v5.076L39.836 12h-1.921l-1.812 4.22h-.575c-.335 0-.697-.064-.894-.277-.241-.27-.353-.685-.353-1.259 0-.564.149-.99.369-1.216.253-.248.516-.318.987-.318h1.215V12H35.61c-.884 0-1.535.197-1.948.625-.55.575-.691 1.303-.691 2.1 0 .974.236 1.592.688 2.048.447.455 1.235.593 1.86.594h1.503l.48-1.197h2.665l.5 1.197h2.61V13.34l2.435 4.028h1.816V12h-1.312z" mask="url(#prefix__d)"/>
        <path fill="#FFF" d="M35.64 14.035c-.302-.001-.333.031-.37.066-.012.017-.102.21-.102.582 0 .368.059.545.102.625.046.012.129.026.253.026l.555-1.299h-.438zM40.782 22.345L40.782 21.236 36.502 21.236 36.502 26.604 40.782 26.604 40.782 25.491 37.778 25.484 37.778 24.417 40.708 24.417 40.708 23.322 37.778 23.322 37.778 22.345zM27.845 23.712H26.19v-1.367h1.672c.464 0 .784.189.784.659 0 .465-.306.71-.8.708zm-2.934 2.404l-1.97-2.188 1.97-2.115v4.303zm-5.086-.63h-3.152V24.42h2.815v-1.096h-2.815v-.976h3.215l1.403 1.563-1.466 1.577zm8.036-4.25h-4.098l-1.632 1.759-1.58-1.758h-5.158v5.368h5.081l1.642-1.778 1.58 1.778h2.493v-1.801h1.6c1.121 0 2.233-.308 2.233-1.8 0-1.484-1.143-1.77-2.16-1.767zM34.108 23.441c-.173.102-.386.11-.636.11h-1.558v-1.206h1.58c.225 0 .456.006.612.098.166.087.265.254.265.482 0 .23-.099.416-.263.516m.772.667c.336-.134.91-.57.912-1.43 0-.61-.255-.947-.659-1.19-.423-.227-.895-.253-1.545-.253h-2.96v5.367h1.288v-1.96h1.37c.468 0 .753.046.94.237.238.25.207.73.207 1.052v.671h1.287v-1.064c-.004-.473-.029-.717-.213-.979-.107-.155-.342-.347-.627-.45M45.684 23.77c-.295-.293-.772-.413-1.47-.43l-.687-.019c-.22 0-.364-.014-.5-.062-.161-.06-.281-.196-.281-.399 0-.17.052-.299.195-.387.128-.088.278-.098.514-.098h2.35v-1.14h-2.568c-1.347 0-1.834.816-1.834 1.597 0 1.697 1.503 1.621 2.7 1.66.226 0 .359.037.457.12.09.075.156.197.156.353 0 .147-.061.27-.15.351-.108.101-.28.133-.523.133h-2.488V26.6h2.498c1.293 0 2.017-.539 2.017-1.694 0-.55-.136-.879-.386-1.137M7.524 15.05l.872-2.139.877 2.14h-1.75zm9.35-3.052l-1.541 3.641-1.68-3.64H11.56v5.081l-2.183-5.082H7.473l-2.297 5.367h1.393l.498-1.197h2.67l.493 1.197h2.61v-4.207l1.863 4.206 1.129.001 1.86-4.203.005 4.203h1.315v-5.367h-2.138zM24.25 13.116L24.25 11.998 19.966 11.998 19.966 17.366 24.25 17.366 24.25 16.256 21.248 16.256 21.248 15.183 24.179 15.183 24.179 14.084 21.248 14.084 21.248 13.116zM50.924 23.77c-.293-.293-.771-.413-1.468-.43l-.69-.019c-.217 0-.362-.014-.5-.062-.158-.06-.28-.196-.28-.399 0-.17.053-.299.194-.387.129-.088.28-.098.515-.098h2.353v-1.14h-2.572c-1.344 0-1.834.816-1.834 1.597 0 1.697 1.505 1.621 2.703 1.66.225 0 .357.037.457.12.088.075.155.197.155.353 0 .147-.063.27-.15.351-.108.101-.28.133-.523.133h-2.487V26.6h2.498c1.293 0 2.014-.539 2.014-1.694 0-.55-.133-.879-.385-1.137" mask="url(#prefix__d)"/>
    </g>
</svg>
