<svg xmlns="http://www.w3.org/2000/svg" xmlns:xlink="http://www.w3.org/1999/xlink" width="35" height="35" viewBox="0 0 35 35">
    <defs>
        <path id="prefix__a" d="M0 0L19 0 19 19 0 19z"/>
    </defs>
    <g fill="none" fill-rule="evenodd" opacity=".37">
        <g transform="translate(8 8)">
            <mask id="prefix__b" fill="#fff">
                <use xlink:href="#prefix__a"/>
            </mask>
            <path fill="#FFF" d="M14.008 15.61c-.31-1.718-.744-3.308-1.248-4.759-.031-.088.027-.183.12-.192 1.298-.134 2.676-.038 4.147.283.079.017.13.096.114.175-.393 1.856-1.446 3.47-2.902 4.586-.087.066-.212.014-.23-.093m-9.164-.033c1.81-2.32 3.802-3.816 6.052-4.515.075-.023.156.017.182.091.582 1.63 1.073 3.452 1.384 5.449.01.067-.027.135-.09.16-.89.354-1.859.549-2.873.549-1.731 0-3.331-.567-4.627-1.524-.067-.049-.079-.145-.028-.21m-3.01-6.19c2.708-.087 5.414-.353 7.893-1.138.07-.022.144.009.175.074.15.315.297.64.442.974.034.08-.007.17-.089.197-2.465.8-4.663 2.429-6.625 4.897-.056.07-.162.077-.222.01-1.1-1.195-1.69-2.976-1.716-4.867-.002-.08.062-.145.141-.147m4.417-6.868c.66.796 1.683 2.155 2.728 4.018.046.082.005.188-.086.214-2.005.585-4.274.84-6.794.937-.098.003-.174-.09-.15-.183.585-2.209 2.112-4.036 4.126-5.023.06-.03.133-.015.176.037m8.103 1.074c-1.043 1.067-2.232 1.868-3.562 2.464-.07.032-.152.002-.189-.064-.931-1.702-1.86-3.03-2.57-3.948-.067-.086-.019-.214.088-.233.448-.08.909-.123 1.379-.123 1.827 0 3.509.63 4.84 1.685.068.053.074.157.014.22m1.392 1.225c.904 1.202 1.468 2.672 1.552 4.268.005.094-.083.167-.176.148-1.746-.354-3.39-.418-4.936-.192-.064.01-.127-.026-.153-.086-.177-.422-.358-.827-.543-1.22-.034-.072-.002-.157.072-.19 1.445-.658 2.784-1.545 3.965-2.74.063-.063.166-.059.22.012M10.366.04C4.447-.49-.49 4.449.038 10.367c.404 4.536 4.057 8.19 8.594 8.594 5.918.528 10.856-4.41 10.328-10.328-.404-4.536-4.057-8.19-8.595-8.594" mask="url(#prefix__b)"/>
        </g>
        <circle cx="17.5" cy="17.5" r="17" stroke="#FFF"/>
    </g>
</svg>
