<svg xmlns="http://www.w3.org/2000/svg" xmlns:xlink="http://www.w3.org/1999/xlink" width="35" height="35" viewBox="0 0 35 35">
    <defs>
        <path id="prefix__a" d="M0 0L20 0 20 20 0 20z"/>
    </defs>
    <g fill="none" fill-rule="evenodd" opacity=".37">
        <g transform="translate(8 8)">
            <mask id="prefix__b" fill="#fff">
                <use xlink:href="#prefix__a"/>
            </mask>
            <path fill="#FFF" d="M18.113 13.976c0 2.285-1.852 4.137-4.138 4.137h-7.95c-2.286 0-4.138-1.852-4.138-4.137V6.024c0-2.285 1.852-4.137 4.138-4.137h7.95c2.286 0 4.138 1.852 4.138 4.137v7.952zM20 6.024C20 2.697 17.303 0 13.975 0h-7.95C2.697 0 0 2.697 0 6.024v7.952C0 17.303 2.697 20 6.025 20h7.95C17.303 20 20 17.303 20 13.976V6.024zm-9.966 7.269c-1.745 0-3.164-1.42-3.164-3.164 0-1.745 1.42-3.164 3.164-3.164 1.744 0 3.163 1.42 3.163 3.164 0 1.745-1.419 3.164-3.163 3.164zm0-8.103c-2.724 0-4.939 2.216-4.939 4.94 0 2.722 2.215 4.938 4.939 4.938 2.723 0 4.94-2.216 4.94-4.939s-2.217-4.939-4.94-4.939zm5.228-1.508c-.65 0-1.177.527-1.177 1.176 0 .65.527 1.176 1.177 1.176.649 0 1.175-.527 1.175-1.176 0-.65-.526-1.176-1.175-1.176z" mask="url(#prefix__b)"/>
        </g>
        <circle cx="17.5" cy="17.5" r="17" stroke="#FFF"/>
    </g>
</svg>
