<svg xmlns="http://www.w3.org/2000/svg" xmlns:xlink="http://www.w3.org/1999/xlink" width="35" height="35" viewBox="0 0 35 35">
    <defs>
        <path id="prefix__a" d="M0.187 0.952L13.304 0.952 13.304 10 0.187 10z"/>
        <path id="prefix__c" d="M0 0.201L2.832 0.201 2.832 3.033 0 3.033z"/>
    </defs>
    <g fill="none" fill-rule="evenodd" opacity=".37">
        <circle cx="17.5" cy="17.5" r="17" stroke="#FFF"/>
        <g transform="translate(11 10)">
            <g transform="translate(0 3)">
                <mask id="prefix__b" fill="#fff">
                    <use xlink:href="#prefix__a"/>
                </mask>
                <path fill="#FFF" d="M.397 10h2.427c.115 0 .21-.097.21-.217V1.378c0-.12-.095-.218-.21-.218H.397c-.117 0-.21.098-.21.218v8.405c0 .12.093.217.21.217m12.908-5.07v4.853c0 .12-.095.217-.21.217h-2.429c-.115 0-.21-.097-.21-.217V5.271c0-1.188-.411-1.999-1.443-1.999-.786 0-1.255.546-1.46 1.074-.076.19-.095.452-.095.717v4.72c0 .12-.094.217-.211.217H4.82c-.116 0-.21-.097-.21-.217.005-1.202.03-7.032.005-8.403-.002-.121.093-.22.21-.22h2.422c.117 0 .211.098.211.218v1.035c-.005.01-.014.019-.02.029h.02v-.029C7.836 1.812 8.511.952 10.025.952c1.875 0 3.28 1.264 3.28 3.979" mask="url(#prefix__b)"/>
            </g>
            <mask id="prefix__d" fill="#fff">
                <use xlink:href="#prefix__c"/>
            </mask>
            <path fill="#FFF" d="M2.832 1.617c0 .781-.635 1.416-1.416 1.416C.634 3.033 0 2.397 0 1.617 0 .835.634.2 1.416.2c.781 0 1.416.633 1.416 1.415" mask="url(#prefix__d)"/>
        </g>
    </g>
</svg>
