<svg xmlns="http://www.w3.org/2000/svg" xmlns:xlink="http://www.w3.org/1999/xlink" width="57" height="37" viewBox="0 0 57 37">
    <defs>
        <path id="prefix__a" d="M0 0.397L56.48 0.397 56.48 37 0 37z"/>
    </defs>
    <g fill="none" fill-rule="evenodd" opacity=".699">
        <path fill="#FFF" d="M14.29 21.811c-.48 0-.605-.365-.605-.583 0-.422.23-.93 1.36-.93.264 0 .292.028.336.035.03.26-.162 1.478-1.092 1.478m.762-4.938c-1.058 0-1.869.34-1.869.34l-.224 1.33s.67-.273 1.682-.273c.575 0 .995.064.995.532 0 .283-.05.388-.05.388s-.454-.036-.664-.036c-1.335 0-2.737.568-2.737 2.287 0 1.353.92 1.663 1.49 1.663 1.09 0 1.56-.706 1.583-.708l-.05.59h1.358l.606-4.25c0-1.805-1.574-1.863-2.12-1.863M19.959 18.298c.217 0 1.054.07 1.054.07l.195-1.363s-.542-.12-1.424-.12c-1.142 0-2.3.455-2.3 2.014 0 1.768 1.932 1.588 1.932 2.334 0 .496-.54.537-.956.537-.721 0-1.369-.246-1.371-.236l-.206 1.35c.037.011.437.19 1.732.19.347 0 2.334.09 2.334-1.962 0-1.918-1.839-1.539-1.839-2.31 0-.384.299-.504.849-.504M23.206 18.472h.817l.197-1.452h-.77l.157-.9h-1.543c-.034.033-.91 5.076-.91 5.688 0 .911.51 1.315 1.23 1.308.562-.004 1.001-.16 1.156-.203l.193-1.312c-.106 0-.26.046-.398.046-.537 0-.596-.287-.562-.498l.433-2.677zM29.673 10.048h-2.754c-.37.5-.718 1.032-1.033 1.552h4.913c-.341-.542-.718-1.06-1.126-1.552M50.978 27.324h-.1v-.152h.094c.04 0 .066.003.08.01.017.005.028.014.035.025.008.012.012.025.012.04 0 .022-.007.042-.023.056-.019.013-.05.021-.098.021zm.183.182c-.03-.045-.055-.079-.075-.1-.01-.01-.026-.02-.044-.026.044-.003.08-.019.106-.046.024-.027.038-.059.038-.096 0-.026-.008-.05-.022-.074-.014-.023-.038-.04-.065-.049-.023-.01-.066-.015-.127-.015h-.174v.505h.082v-.214h.047c.03 0 .051.006.066.018.02.017.05.056.085.117l.044.08h.1l-.06-.1zM31.634 13.123h-6.607c-.422.799-.702 1.403-.781 1.553h8.014c-.181-.534-.39-1.051-.626-1.553M10.293 15.644L8.772 20.154 8.693 15.644 6.441 15.644 5.207 22.993 6.696 22.993 7.635 17.453 7.773 22.993 8.836 22.993 10.819 17.453 9.94 22.993 11.52 22.993 12.737 15.644zM39.309 21.811c-.48 0-.604-.365-.604-.583 0-.422.229-.93 1.36-.93.264 0 .292.028.337.035.028.26-.164 1.478-1.093 1.478m.76-4.938c-1.06 0-1.87.34-1.87.34l-.225 1.33s.67-.273 1.683-.273c.575 0 .996.064.996.532 0 .283-.054.388-.054.388s-.451-.036-.664-.036c-1.334 0-2.734.568-2.734 2.287 0 1.353.92 1.663 1.49 1.663 1.088 0 1.557-.706 1.583-.708l-.052.59h1.358l.606-4.25c.004-1.805-1.57-1.863-2.116-1.863M51.145 22.743c-.034.062-.082.109-.146.146-.06.034-.126.052-.193.052-.066 0-.133-.018-.192-.052-.064-.035-.111-.083-.147-.146-.036-.063-.051-.127-.051-.194s.016-.132.053-.195c.035-.062.081-.11.146-.145.063-.035.127-.05.191-.05.067 0 .13.016.192.05.063.035.11.082.145.145.035.063.054.128.054.195s-.018.132-.053.194m.066-.427c-.041-.076-.1-.134-.175-.174-.075-.041-.151-.061-.231-.061-.078.001-.154.021-.23.061-.075.04-.133.098-.174.174-.042.075-.064.153-.064.234 0 .081.022.158.064.232.04.074.099.133.172.175.075.041.151.062.231.062.083 0 .16-.021.235-.062.074-.042.13-.101.172-.175.042-.074.063-.151.063-.232 0-.083-.022-.161-.064-.234" transform="translate(0 -1)"/>
        <path fill="#FFF" d="M50.783 22.524h-.1v-.153h.093c.04 0 .066.003.082.007.013.007.025.015.032.028.01.013.014.023.014.041 0 .021-.01.041-.024.055-.019.017-.05.022-.097.022zm.18.185c-.03-.047-.055-.08-.075-.1-.01-.01-.024-.02-.043-.026.043-.003.08-.019.105-.046.024-.027.04-.06.04-.096 0-.025-.008-.05-.024-.074-.016-.023-.037-.039-.062-.049-.025-.01-.069-.016-.128-.016H50.6v.505h.082v-.215h.047c.03 0 .053.007.067.018.021.018.05.056.086.12l.043.078h.101l-.062-.099zM45.313 16.946c-.69 0-1.204.943-1.204.943l.139-.867h-1.44l-.962 5.982h1.584c.45-2.556.532-4.629 1.605-4.25.188-.988.37-1.37.576-1.788 0 .001-.097-.02-.297-.02M47.336 21.582c-.556 0-.816-.466-.816-1.198 0-1.197.537-1.986 1.216-1.986.554 0 .839.382.839 1.28 0 .815-.403 1.904-1.24 1.904zm1.957-5.93l-.333 2.065s-.58-.803-1.49-.803c-1.415 0-2.593 1.706-2.593 3.664 0 1.265.629 2.504 1.913 2.504.925 0 1.437-.645 1.437-.645l-.067.55h1.5l1.18-7.338-1.547.003z" transform="translate(0 -1)"/>
        <g transform="translate(0 -1) translate(0 .603)">
            <mask id="prefix__b" fill="#fff">
                <use xlink:href="#prefix__a"/>
            </mask>
            <path fill="#FFF" d="M52.457 18.7c.002 8.004-6.484 14.496-14.49 14.498-3.744.001-7.158-1.418-9.73-3.749-2.572 2.327-5.979 3.745-9.717 3.745-8.001 0-14.495-6.494-14.495-14.495 0-7.97 6.443-14.444 14.402-14.496h.093c3.738 0 7.146 1.418 9.718 3.745C30.809 5.62 34.219 4.201 37.96 4.2c8.006-.003 14.497 6.486 14.499 14.492-.002.002-.002.003-.002.007m-1.048 8.277c-.042.076-.099.134-.173.175-.074.041-.152.062-.232.062-.082 0-.16-.02-.234-.062-.073-.04-.131-.099-.174-.175-.041-.073-.062-.152-.062-.233 0-.08.021-.157.063-.233.041-.076.101-.133.175-.174.075-.039.151-.06.231-.06.079 0 .155.021.229.06.075.041.134.098.175.174.042.076.062.154.062.233 0 .081-.018.162-.06.233M55.026.397H1.454C.65.397 0 1.048 0 1.851v33.695C0 36.35.65 37 1.454 37h53.572c.804 0 1.454-.65 1.454-1.454V1.851c0-.803-.65-1.454-1.454-1.454" mask="url(#prefix__b)"/>
        </g>
        <path fill="#FFF" d="M26.753 28.467c.459.562.945 1.099 1.482 1.584l.037-.03-.001-.001h.003c.528-.482 1.02-1 1.472-1.553h-2.993zM26.735 18.232c.87 0 .71.979.71 1.057h-1.713c0-.101.162-1.057 1.003-1.057zm1.992 2.279s.203-1 .203-1.407c0-1.017-.506-2.257-2.2-2.257-1.552 0-2.701 1.673-2.701 3.563 0 2.18 1.439 2.699 2.666 2.699 1.132 0 1.63-.253 1.63-.253l.272-1.49s-.861.38-1.64.38c-1.656 0-1.366-1.235-1.366-1.235h3.136zM35.965 17.052c.785 0 1.416.441 1.416.441l.252-1.635s-.934-.378-1.738-.378c-1.781 0-3.514 1.546-3.514 4.45 0 1.924.936 3.195 2.777 3.195.52 0 1.35-.21 1.35-.21l.276-1.685s-.756.38-1.276.38c-1.096-.002-1.535-.838-1.535-1.734 0-1.823.942-2.824 1.992-2.824M24.818 25.422c.25.539.543 1.053.856 1.553h5.144c.31-.498.592-1.017.843-1.553h-6.843zM32.352 16.948c-.69 0-1.201.943-1.201.943l.139-.867h-1.438l-.962 5.982h1.582c.45-2.555.534-4.629 1.605-4.25.188-.989.37-1.372.575-1.79 0 0-.098-.02-.3-.018" transform="translate(0 -1)"/>
    </g>
</svg>
