<svg xmlns="http://www.w3.org/2000/svg" xmlns:xlink="http://www.w3.org/1999/xlink" width="57" height="37" viewBox="0 0 57 37">
    <defs>
        <path id="prefix__a" d="M0 0.397L56.48 0.397 56.48 37 0 37z"/>
    </defs>
    <g fill="none" fill-rule="evenodd" opacity=".699">
        <path fill="#FFF" d="M12.121 15.922c-.229-.15-.57-.226-1.018-.226l-.383.002c-.25-.002-.508.2-.557.444l-.353 1.52c-.055.246.102.447.356.447h.286c.635 0 1.127-.129 1.48-.389.353-.258.534-.625.526-1.1.002-.314-.11-.549-.337-.698M18.371 19.425c-.069.002-.598.062-.866.095-.3.043-.56.103-.77.174l-.497.338c-.116.145-.17.332-.17.571l.225.438c.153.086.38.128.667.128.19 0 .396-.046.612-.134l.46-.237.182-.242c.072-.282.221-.909.238-.987l-.08-.144z" transform="translate(0 -1)"/>
        <g transform="translate(0 -1) translate(0 .603)">
            <mask id="prefix__b" fill="#fff">
                <use xlink:href="#prefix__a"/>
            </mask>
            <path fill="#FFF" d="M49.725 13.608v.737h-.188v-.65l-.012-.14-.026-.11-.066-.064-.127-.023-.158.04-.163.104.003.056.002.06v.729h-.191v-.65l-.008-.141-.027-.11-.063-.064-.13-.023-.157.039-.16.099v.85h-.186v-1.14h.187v.128l.182-.116.188-.042.199.047.122.136.21-.141.205-.042.276.113.09.318h-.002zm-1.895-.24h-.391v.522l.003.14.026.094.063.06.12.019.097-.014.074-.022h.008v.17l-.117.024-.111.009-.266-.095-.09-.3v-.606h-.132v-.162h.132v-.325h.193v.325h.39v.162zm-2.078.769l-1.568 7.1-.055.085c-.092.2-.291.362-.506.362h-1.087l-.021-.025c-.207-.031-.342-.198-.293-.417l-.002-.005.047-.205 1.467-6.662.052-.232.058-.091c.096-.196.289-.355.504-.355h1.047c.256 0 .408.199.354.443l.003.002zm-3.75 3.107l-.043.303-.856 3.689c-.048.224-.27.412-.5.44l-.015.006H39.5l-.002-.006c-.226-.021-.367-.21-.312-.438l-.002-.003.006-.004.038-.187-.007-.01-.437.296-.484.266-.564.192c-.175.045-.42.063-.734.068-.5 0-.914-.142-1.232-.423-.316-.286-.48-.657-.48-1.111 0-.477.113-.885.336-1.221.23-.336.565-.597 1.006-.795.418-.19.92-.328 1.488-.408.578-.084 1.057-.145 1.727-.186l.168-.106.019-.165c0-.252-.117-.43-.355-.531-.237-.101-.596-.151-1.061-.151-.321-.002-.721.062-1.1.147-.395.092-.502.149-.694.207-.1.029-.31.046-.23-.33l.144-.588s.066-.446.513-.542c.217-.047.252-.058.602-.11.473-.075.945-.112 1.416-.112.949 0 1.646.126 2.092.375.445.248.669.634.669 1.155l-.028.283zm-7.257.94c-.8.583-1.913.878-3.344.878h-.334c-.252-.004-.505.2-.563.443l-.395 1.742c-.06.242-.315.442-.563.439l-1.173.003c-.25 0-.413-.201-.353-.443l1.646-7.168c.06-.243.306-.441.56-.445l2.447-.002c.526.002.988.039 1.375.108.396.072.736.196 1.02.373.278.179.498.408.643.692.15.28.223.634.225 1.054 0 .959-.4 1.733-1.191 2.326zm-12.118 6.329l-1.212.002c-.252 0-.335-.2-.181-.446l1.037-1.808s.083-.103.009-.693c-.16-1.065-.955-5.598-.955-5.598-.058-.245.097-.446.349-.446l1.05-.002c.32 0 .579.21.636.459l.522 3.143.195.002c.162-.29 1.838-3.165 1.838-3.165.16-.242.484-.447.736-.447 0 0 1.127.003 1.405 0 .416-.006-.033.668-.033.668l-4.664 7.887c-.15.246-.482.444-.732.444zm-1.881-7.274l-.043.3-.854 3.693c-.051.223-.27.41-.503.439l-.017.005h-1.087l-.005-.004c-.222-.021-.361-.21-.313-.438v-.002l.002-.007.045-.187-.007-.008-.441.29-.48.269-.566.194c-.173.042-.42.067-.734.067-.5 0-.917-.137-1.234-.42-.314-.29-.475-.658-.475-1.11 0-.48.11-.886.334-1.224.23-.336.56-.598 1.006-.794.415-.19.914-.33 1.484-.408.582-.084 1.062-.145 1.727-.187l.168-.104.02-.165c0-.254-.117-.43-.352-.532-.238-.1-.595-.15-1.064-.15-.318-.004-.717.06-1.097.147-.397.09-.506.149-.7.207-.09.03-.307.046-.226-.33l.143-.59s.07-.444.516-.541c.214-.048.249-.057.599-.111.475-.073.945-.11 1.416-.11.953 0 1.652.124 2.092.373.443.248.669.636.667 1.157l-.021.28zm-7.262.914c-.796.586-1.904.878-3.336.88h-.334c-.256 0-.507.202-.561.444l-.402 1.738c-.057.248-.308.446-.562.446h-1.17c-.253 0-.413-.203-.352-.446l1.645-7.163c.06-.246.309-.443.563-.447l2.443-.001c.528.005.985.037 1.38.109.39.074.73.198 1.019.374.276.174.499.407.639.689.156.282.226.635.226 1.055 0 .96-.395 1.736-1.198 2.322zM55.027.397H1.454C.65.397 0 1.047 0 1.85v33.694C0 36.348.65 37 1.454 37h53.573c.803 0 1.454-.652 1.454-1.455V1.85c0-.803-.651-1.454-1.454-1.454z" mask="url(#prefix__b)"/>
        </g>
        <path fill="#FFF" d="M39.628 19.431c-.07-.001-.596.061-.86.095-.303.043-.562.102-.771.174-.214.084-.388.197-.501.338-.112.146-.168.332-.168.572l.229.437c.146.087.369.129.666.129.187 0 .393-.046.608-.133l.457-.237.188-.242c.07-.285.222-.91.234-.988l-.082-.145zM33.372 15.95c-.23-.152-.567-.226-1.016-.228l-.38.002c-.253-.002-.509.202-.56.445l-.356 1.52c-.056.243.107.447.36.445h.291c.633 0 1.124-.13 1.478-.384.35-.26.528-.625.526-1.104-.006-.312-.115-.547-.343-.697" transform="translate(0 -1)"/>
    </g>
</svg>
