<svg xmlns="http://www.w3.org/2000/svg" xmlns:xlink="http://www.w3.org/1999/xlink" width="57" height="37" viewBox="0 0 57 37">
    <defs>
        <path id="prefix__a" d="M0 0.397L56.48 0.397 56.48 37 0 37z"/>
    </defs>
    <g fill="none" fill-rule="evenodd" opacity=".699">
        <g transform="translate(0 -1) translate(0 .603)">
            <mask id="prefix__b" fill="#fff">
                <use xlink:href="#prefix__a"/>
            </mask>
            <path fill="#FFF" d="M48.549 25.854s-.354-1.64-.473-2.138l-4.98-.006c-.151.385-.817 2.144-.817 2.144h-4.083l5.773-13.075c.41-.93 1.105-1.184 2.037-1.184h3.004l3.147 14.258h-3.608zm-16.85.208c-1.743-.018-3.422-.363-4.332-.762l.547-3.193.5.227c1.279.533 2.105.749 3.662.749 1.118 0 2.314-.437 2.326-1.393.006-.625-.501-1.071-2.016-1.771-1.476-.682-3.43-1.826-3.406-3.875.02-2.773 2.729-4.708 6.572-4.708 1.506 0 2.713.31 3.483.599l-.525 3.093-.351-.165c-.715-.288-1.636-.566-2.91-.546-1.522 0-2.227.634-2.227 1.227-.01.668.823 1.108 2.183 1.77 2.243 1.018 3.28 2.253 3.266 3.876-.03 2.96-2.683 4.872-6.772 4.872zm-6.766-.214h-3.888l2.43-14.268h3.89l-2.432 14.268zm-13.266-.01L8.185 13.942c2.503 1.602 4.635 4.144 5.386 5.913l.406 1.469 3.808-9.73h4.12l-6.123 14.24-4.115.004zm-7.294-14.38H10.4c.813.03 1.468.29 1.694 1.159l1.31 6.305c-1.287-3.298-4.391-6.042-9.082-7.178l.05-.286zM55.027.397H1.454C.65.397 0 1.047 0 1.85v33.695C0 36.349.65 37 1.454 37h53.573c.803 0 1.454-.651 1.454-1.454V1.85c0-.803-.651-1.454-1.454-1.454z" mask="url(#prefix__b)"/>
        </g>
        <path fill="#FFF" d="M46.542 17.276l-.262-1.23c-.198.537-.539 1.4-.517 1.362 0 0-1.229 3.167-1.549 3.988h3.229l-.901-4.12" transform="translate(0 -1)"/>
    </g>
</svg>
