<svg xmlns="http://www.w3.org/2000/svg" viewBox="0 0 512 512" width="512" height="512">
	<defs>
		<linearGradient id="grd1" gradientUnits="userSpaceOnUse"  x1="122.055" y1="256" x2="389.944" y2="256">
			<stop offset="0" stop-color="#86cc44"  />
			<stop offset="1" stop-color="#548624"  />
		</linearGradient>
	</defs>
	<style>
		tspan { white-space:pre }
		.shp0 { fill: url(#grd1) } 
	</style>
	<path class="shp0" d="M376.73,39.34v164.49c8.1,7.21 13.21,17.7 13.21,29.37v70.44c0,46.85 -24.56,90.13 -64.46,114.39v83.97c0,5.52 -4.48,10 -10,10h-139.9c-5.52,0 -10,-4.48 -10,-10v-99.77c-27.1,-24.94 -43.52,-60.51 -43.52,-98.59v-219.59c0,-21.69 17.65,-39.34 39.33,-39.34c21.69,0 39.34,17.65 39.34,39.34v52.29c5.71,-3.24 12.31,-5.1 19.33,-5.1c11.65,0 22.13,5.09 29.34,13.16c7.21,-8.07 17.68,-13.17 29.33,-13.17c7.02,0 13.62,1.86 19.34,5.1v-97c0,-21.69 17.64,-39.34 39.33,-39.34c21.69,0 39.33,17.65 39.33,39.34zM318.06,39.34v154.53h32.55c2.08,0 4.12,0.17 6.12,0.48v-155.01c0,-10.66 -8.67,-19.34 -19.33,-19.34c-10.66,0 -19.33,8.67 -19.33,19.34zM142.05,84.05v219.59c0,47.62 30.18,90.66 75.11,107.09c5.19,1.9 7.85,7.64 5.96,12.83c-1.48,4.05 -5.31,6.57 -9.39,6.57c-1.14,0 -2.3,-0.19 -3.43,-0.61c-8.75,-3.2 -17.01,-7.27 -24.72,-12.07v36.99h41.04c5.52,0 10,4.48 10,10c0,5.52 -4.48,10 -10,10h-41.04v17.57h119.9v-79.72c0,-0.02 0,-0.05 0,-0.07c0,-0.3 0.02,-0.6 0.05,-0.9c0.02,-0.15 0.04,-0.3 0.06,-0.45c0.02,-0.17 0.04,-0.33 0.08,-0.5c0.04,-0.2 0.09,-0.39 0.14,-0.58c0.03,-0.12 0.06,-0.24 0.09,-0.35c0.06,-0.2 0.13,-0.39 0.2,-0.59c0.04,-0.11 0.08,-0.22 0.12,-0.33c0.07,-0.18 0.16,-0.35 0.24,-0.53c0.06,-0.12 0.11,-0.24 0.17,-0.36c0.08,-0.15 0.17,-0.29 0.25,-0.43c0.08,-0.14 0.16,-0.28 0.25,-0.42c0.08,-0.12 0.16,-0.23 0.24,-0.34c0.11,-0.15 0.22,-0.31 0.34,-0.45c0.08,-0.1 0.16,-0.19 0.24,-0.28c0.13,-0.15 0.26,-0.3 0.41,-0.45c0.09,-0.09 0.19,-0.18 0.28,-0.26c0.14,-0.13 0.28,-0.26 0.43,-0.39c0.14,-0.11 0.28,-0.22 0.42,-0.32c0.12,-0.09 0.23,-0.17 0.35,-0.26c0.26,-0.18 0.54,-0.35 0.82,-0.51c0,0 0.01,0 0.01,0l0,0c0.02,-0.01 0.04,-0.02 0.06,-0.03c36.53,-20.07 59.21,-58.32 59.21,-99.84v-70.44c0,-6.63 -3.35,-12.48 -8.45,-15.97c-0.15,-0.09 -0.29,-0.18 -0.43,-0.27c-3.02,-1.95 -6.6,-3.09 -10.45,-3.09h-71.89c-10.65,0 -19.32,8.66 -19.33,19.31c0,0.01 0,0.01 0,0.02v0.04c0.02,10.64 8.68,19.3 19.33,19.3h42.55c5.52,0 10,4.48 10,10c0,5.52 -4.48,10 -10,10h-12.11c-32.73,0 -62.44,18.04 -77.54,47.07c-1.78,3.42 -5.27,5.39 -8.88,5.39c-1.55,0 -3.13,-0.36 -4.61,-1.13c-4.9,-2.55 -6.81,-8.58 -4.26,-13.48c1.42,-2.72 2.95,-5.36 4.57,-7.92c-20.95,-0.85 -37.73,-18.14 -37.73,-39.29v-179.12c0,-10.66 -8.67,-19.34 -19.33,-19.34c-10.66,0 -19.34,8.67 -19.34,19.34zM259.39,170.55c0,0.01 0,0.02 0,0.03c0,0.01 0,0.02 0,0.04v28.36c5.71,-3.24 12.31,-5.1 19.33,-5.1h19.34v-23.29c0,-10.66 -8.67,-19.33 -19.34,-19.33c-10.65,0 -19.32,8.66 -19.33,19.31zM200.72,170.57v92.59c0,10.66 8.67,19.33 19.33,19.33c10.66,0 19.34,-8.67 19.34,-19.33v-29.89c0,-0.03 0,-0.05 0,-0.08v-62.65c-0.01,-10.65 -8.68,-19.31 -19.33,-19.31c-10.66,0 -19.33,8.67 -19.33,19.33zM215.39,332.09c5.42,1.08 8.94,6.34 7.86,11.76c0,0.02 -0.02,0.09 -0.02,0.11c-0.91,4.79 -5.11,8.13 -9.81,8.13c-0.62,0 -1.25,-0.06 -1.88,-0.18c-5.43,-1.03 -8.99,-6.27 -7.95,-11.69l0.05,-0.26c0.94,-4.74 5.08,-8.02 9.74,-8.05c0.66,0 1.34,0.06 2.02,0.19zM255.58,454.43c5.52,0 10,4.48 10,10c0,5.52 -4.48,10 -10,10h-0.24c-5.52,0 -10,-4.48 -10,-10c0,-5.52 4.48,-10 10,-10z" />
</svg>
