<svg id="Layer_1" data-name="Layer 1" xmlns="http://www.w3.org/2000/svg" xmlns:xlink="http://www.w3.org/1999/xlink" viewBox="0 0 512 512"><defs><style>.cls-jlkjhbkas,.cls-opiru8to{stroke-miterlimit:10;}.cls-jlkjhbkas{stroke-width:4px;fill:url(#Безымянный_градиент);stroke:url(#Новый_образец_градиентной_зал_2);}.cls-jlsavcxcv{fill:url(#Безымянный_градиент_3);}.cls-opiru8to{fill:none;stroke-width:13px;stroke:url(#Безымянный_градиент_4);}</style><linearGradient id="Безымянный_градиент" x1="93.04" y1="346.98" x2="417.08" y2="346.98" gradientTransform="matrix(1, 0, 0, -1, 0, 514)" gradientUnits="userSpaceOnUse"><stop offset="0" stop-color="#519115"/><stop offset="1" stop-color="#87cc44"/></linearGradient><linearGradient id="Новый_образец_градиентной_зал_2" x1="91.04" y1="346.98" x2="419.08" y2="346.98" xlink:href="#Безымянный_градиент"/><linearGradient id="Безымянный_градиент_3" x1="30.66" y1="90.13" x2="485" y2="90.13" xlink:href="#Безымянный_градиент"/><linearGradient id="Безымянный_градиент_4" x1="222.08" y1="347.69" x2="312.49" y2="347.69" xlink:href="#Безымянный_градиент"/></defs><title>handmade</title><path class="cls-jlkjhbkas" d="M255.06,5C165.68,5,93,77.64,93,167a162.68,162.68,0,0,0,36,101.87,6.47,6.47,0,0,0,10.06-8.15A149.09,149.09,0,0,1,106,167c0-82.17,66.82-149.1,149.1-149.1S404.16,84.85,404.16,167s-66.82,149.1-149.1,149.1A149.32,149.32,0,0,1,161.34,283,6.47,6.47,0,1,0,153.19,293a162.66,162.66,0,0,0,101.87,36c89.37,0,162-72.64,162-162S344.43,5,255.06,5Z"/><path class="cls-jlsavcxcv" d="M483.9,389.29a42.69,42.69,0,0,0-56.44-17.15l-66.3,31.34a53.78,53.78,0,0,0-46-28.38L254,373.41a65.86,65.86,0,0,1-27.85-7.2L219.9,363a109.84,109.84,0,0,0-101.66.11l.42-14.09a8.5,8.5,0,0,0-8.26-8.68l-67-1.8a8.5,8.5,0,0,0-8.68,8.26l-4,147.2a8.5,8.5,0,0,0,8.26,8.68l67,1.8h.21a8.46,8.46,0,0,0,8.47-8.26l.21-7,17.47-9.32a29.83,29.83,0,0,1,22.35-2.43l104.09,29.22a.94.94,0,0,0,.53.11,110.28,110.28,0,0,0,22.88,2.33,112.83,112.83,0,0,0,47.12-10.27c.32-.22.74-.32,1.06-.53l150.9-97.64A8.81,8.81,0,0,0,483.9,389.29ZM47.82,485.87l3.6-130.25,50.2,1.38L98,487.25Zm273.74-2.22a96.26,96.26,0,0,1-58.67,6.56L159.12,461.09a47,47,0,0,0-34.84,3.81l-8.9,4.77,2.44-86.62A93.25,93.25,0,0,1,212.28,378l6.24,3.18a83.08,83.08,0,0,0,35.16,9.11l61.21,1.69a37.15,37.15,0,0,1,35.26,29.55L259.08,419a8.47,8.47,0,1,0-.42,16.94l100.49,2.75h.21a8.46,8.46,0,0,0,8.48-8.26,56,56,0,0,0-.85-11l68-32.09.22-.1a25.73,25.73,0,0,1,29.22,4.13Z"/><path class="cls-opiru8to" d="M303.77,170.41,236.1,213.93a4.52,4.52,0,0,1-2.64.74,4.83,4.83,0,0,1-2.33-.63,4.75,4.75,0,0,1-2.55-4.24v-87a4.75,4.75,0,0,1,2.55-4.24,4.92,4.92,0,0,1,5,.21l67.67,43.52a4.8,4.8,0,0,1,2.22,4A5,5,0,0,1,303.77,170.41Z"/></svg>