<svg id="Layer_1" data-name="Layer 1" xmlns="http://www.w3.org/2000/svg" xmlns:xlink="http://www.w3.org/1999/xlink" viewBox="0 0 512 512"><defs><style>.cls-qwewer,.cls-rtyrty,.cls-tyutyu,.cls-iuoyoi{fill-rule:evenodd;}.cls-qwewer{fill:url(#Новый_образец_градиентной_зал_2);}.cls-rtyrty,.cls-iuoyoi{fill:none;stroke-miterlimit:10;}.cls-rtyrty{stroke:url(#Новый_образец_градиентной_зал_2-2);}.cls-tyutyu{fill:url(#Новый_образец_градиентной_зал_2-3);}.cls-iuoyoi{stroke:url(#Новый_образец_градиентной_зал_2-4);}</style><linearGradient id="Новый_образец_градиентной_зал_2" x1="2.99" y1="256" x2="509.01" y2="256" gradientUnits="userSpaceOnUse"><stop offset="0" stop-color="#519115"/><stop offset="1" stop-color="#87cc44"/></linearGradient><linearGradient id="Новый_образец_градиентной_зал_2-2" x1="2.49" x2="509.51" xlink:href="#Новый_образец_градиентной_зал_2"/><linearGradient id="Новый_образец_градиентной_зал_2-3" x1="173.99" y1="257.74" x2="338.01" y2="257.74" xlink:href="#Новый_образец_градиентной_зал_2"/><linearGradient id="Новый_образец_градиентной_зал_2-4" x1="173.49" y1="257.74" x2="338.51" y2="257.74" xlink:href="#Новый_образец_градиентной_зал_2"/></defs><title>price</title><path class="cls-qwewer" d="M256,3C116.49,3,3,116.49,3,256A253.59,253.59,0,0,0,59.22,415,10.12,10.12,0,0,0,75,402.31,233.32,233.32,0,0,1,23.23,256C23.23,127.65,127.65,23.23,256,23.23S488.77,127.65,488.77,256,384.35,488.77,256,488.77a233.32,233.32,0,0,1-146.31-51.72A10.12,10.12,0,0,0,97,452.78,253.59,253.59,0,0,0,256,509c139.51,0,253-113.5,253-253S395.51,3,256,3"/><path class="cls-rtyrty" d="M256,3C116.49,3,3,116.49,3,256A253.59,253.59,0,0,0,59.22,415,10.12,10.12,0,0,0,75,402.31,233.32,233.32,0,0,1,23.23,256C23.23,127.65,127.65,23.23,256,23.23S488.77,127.65,488.77,256,384.35,488.77,256,488.77a233.32,233.32,0,0,1-146.31-51.72A10.12,10.12,0,0,0,97,452.78,253.59,253.59,0,0,0,256,509c139.51,0,253-113.5,253-253S395.51,3,256,3"/><path class="cls-tyutyu" d="M272.62,242H239.38C220.44,242,205,226.37,205,207.16s15.41-34.85,34.35-34.85h66.49a15.75,15.75,0,0,0,0-31.49H271.52V106a15.52,15.52,0,1,0-31,0v34.84h-1.1c-36.06,0-65.39,29.76-65.39,66.34s29.33,66.33,65.39,66.33h33.24c18.94,0,34.35,15.63,34.35,34.84s-15.41,34.85-34.35,34.85H206.13a15.74,15.74,0,0,0,0,31.48h34.35v34.85a15.52,15.52,0,1,0,31,0V374.66h1.1c36.06,0,65.39-29.75,65.39-66.33S308.68,242,272.62,242"/><path class="cls-iuoyoi" d="M272.62,242H239.38C220.44,242,205,226.37,205,207.16s15.41-34.85,34.35-34.85h66.49a15.75,15.75,0,0,0,0-31.49H271.52V106a15.52,15.52,0,1,0-31,0v34.84h-1.1c-36.06,0-65.39,29.76-65.39,66.34s29.33,66.33,65.39,66.33h33.24c18.94,0,34.35,15.63,34.35,34.84s-15.41,34.85-34.35,34.85H206.13a15.74,15.74,0,0,0,0,31.48h34.35v34.85a15.52,15.52,0,1,0,31,0V374.66h1.1c36.06,0,65.39-29.75,65.39-66.33S308.68,242,272.62,242"/></svg>