<svg xmlns="http://www.w3.org/2000/svg" viewBox="0 0 2702 981" width="2702" height="981">
	<defs>
		<linearGradient id="grd1" gradientUnits="userSpaceOnUse"  x1="468.78" y1="547.397" x2="150.221" y2="47.598">
			<stop offset="0" stop-color="#49437f"  />
			<stop offset="0" stop-color="#272d3d"  />
			<stop offset="1" stop-color="#3b455b"  />
		</linearGradient>
		<linearGradient id="grd2" gradientUnits="userSpaceOnUse"  x1="2581.78" y1="933.397" x2="2263.222" y2="433.599">
			<stop offset="0" stop-color="#49437f"  />
			<stop offset="0" stop-color="#272d3d"  />
			<stop offset="1" stop-color="#3b455b"  />
		</linearGradient>
	</defs>
	<style>
		tspan { white-space:pre }
		.shp0 { opacity: 0.302;fill: url(#grd1) } 
		.shp1 { opacity: 0.302;fill: url(#grd2) } 
	</style>
	<path id="Shape 1" class="shp0" d="M219.09,22.57c-225.61,-72.59 -214.8,49.95 -205.55,85.4c9.25,35.45 59.56,109 6.72,159.35c-52.85,50.34 -11.01,225.02 230.91,302.86c241.92,77.83 138.87,-49.91 175.65,-75.96c36.78,-26.05 73.16,18.13 92.01,-10.02c17.74,-26.5 -14.36,-64.58 -4.54,-88.97c9.82,-24.39 41.6,1.97 67.21,-19.15c25.62,-21.12 -22.45,-105.15 -22.45,-105.15c0,0 -114.33,-175.77 -339.94,-248.36z" />
	<path id="Shape 1" class="shp1" d="M2332.09,408.58c-225.61,-72.59 -214.8,49.95 -205.55,85.4c9.25,35.45 59.56,109 6.72,159.35c-52.85,50.34 -11.01,225.02 230.91,302.86c241.92,77.84 138.87,-49.91 175.65,-75.96c36.78,-26.05 73.16,18.13 92.01,-10.02c17.74,-26.5 -14.36,-64.58 -4.54,-88.97c9.82,-24.39 41.6,1.97 67.21,-19.15c25.62,-21.12 -22.45,-105.15 -22.45,-105.15c0,0 -114.33,-175.77 -339.94,-248.36z" />
</svg>
