<svg id="Группа_2" data-name="Группа 2" xmlns="http://www.w3.org/2000/svg" width="800" height="768" viewBox="0 0 800 768">
  <metadata><?xpacket begin="﻿" id="W5M0MpCehiHzreSzNTczkc9d"?>
<x:xmpmeta xmlns:x="adobe:ns:meta/" x:xmptk="Adobe XMP Core 5.6-c138 79.159824, 2016/09/14-01:09:01        ">
   <rdf:RDF xmlns:rdf="http://www.w3.org/1999/02/22-rdf-syntax-ns#">
      <rdf:Description rdf:about=""/>
   </rdf:RDF>
</x:xmpmeta>
                                                                                                    
                                                                                                    
                                                                                                    
                                                                                                    
                                                                                                    
                                                                                                    
                                                                                                    
                                                                                                    
                                                                                                    
                                                                                                    
                                                                                                    
                                                                                                    
                                                                                                    
                                                                                                    
                                                                                                    
                                                                                                    
                                                                                                    
                                                                                                    
                                                                                                    
                                                                                                    
                           
<?xpacket end="w"?></metadata>
<defs>
    <style>
      .cls-1 {
        fill: #3585b7;
      }

      .cls-1, .cls-3 {
        fill-rule: evenodd;
      }

      .cls-2 {
        fill: none;
        stroke: #fff;
        stroke-width: 5px;
        stroke-dasharray: 20 10;
      }

      .cls-3, .cls-4, .cls-5, .cls-6, .cls-7 {
        fill: #fff;
      }

      .cls-5 {
        font-size: 90px;
        font-weight: 700;
      }

      .cls-5, .cls-6, .cls-7 {
        text-anchor: middle;
        font-family: Lato;
      }

      .cls-6 {
        font-size: 80px;
        font-weight: 500;
      }

      .cls-7 {
        font-size: 120px;
        font-weight: 800;
      }
    </style>
  </defs>
  <path class="cls-1" d="M773.985,383c0,24.213-25.044,45.64-29.547,68.527-4.667,23.586,10.164,52.933,1.164,74.635-9.161,22.061-40.484,32.3-53.619,51.92-13.22,19.763-10.777,52.6-27.539,69.367s-49.6,14.308-69.361,27.534c-19.629,13.14-29.846,44.447-51.919,53.612-21.7,8.993-51.056-5.83-74.631-1.153C445.646,731.96,424.2,756.982,400,756.982s-45.654-25.022-68.531-29.537c-23.584-4.677-52.926,10.146-74.627,1.153-22.078-9.165-32.3-40.472-51.919-53.612-19.773-13.226-52.616-10.77-69.368-27.534s-14.308-49.6-27.543-69.367c-13.139-19.624-44.464-29.859-53.615-51.92-8.993-21.7,5.821-51.049,1.16-74.635C51.019,428.643,26.014,407.216,26.014,383s25-45.647,29.538-68.516c4.661-23.593-10.153-52.956-1.16-74.639,9.151-22.068,40.476-32.3,53.615-51.929,13.235-19.757,10.788-52.588,27.543-69.35s49.6-14.319,69.368-27.561c19.614-13.129,29.841-44.447,51.919-53.6,21.7-9,51.043,5.832,74.627,1.164C354.341,34.035,375.792,9.017,400,9.017s45.651,25.018,68.538,29.553c23.575,4.668,52.927-10.169,74.631-1.164,22.073,9.155,32.29,40.474,51.919,53.623,19.764,13.222,52.593,10.773,69.361,27.541s14.319,49.593,27.539,69.35c13.135,19.63,44.458,29.861,53.619,51.929,9,21.683-5.831,51.051-1.164,74.639C748.941,337.356,773.985,358.8,773.985,383Z"/>
  <circle id="Эллипс_1" data-name="Эллипс 1" class="cls-2" cx="399.5" cy="382.5" r="303.5"/>
  <g id="Группа_1" data-name="Группа 1">
    <path id="Right_Small_Star" data-name="Right Small Star" class="cls-3" d="M400.488,168.012l8.735,16.028,17.766,3.452-12.367,13.359,2.245,18.161-16.379-7.772-16.379,7.772,2.245-18.161-12.367-13.359,17.766-3.452,8.735-16.028"/>
    <rect id="Прямоугольник_скругл._углы_1" data-name="Прямоугольник, скругл. углы 1" class="cls-4" x="221" y="190" width="133" height="7" rx="1.5" ry="1.5"/>
    <rect id="Прямоугольник_скругл._углы_1_копия" data-name="Прямоугольник, скругл. углы 1 копия" class="cls-4" x="447" y="190" width="133" height="7" rx="1.5" ry="1.5"/>
  </g>
  <g id="Группа_1_копия" data-name="Группа 1 копия">
    <path id="Right_Small_Star-2" data-name="Right Small Star" class="cls-3" d="M400.488,542.012l8.735,16.028,17.766,3.452-12.367,13.359,2.245,18.161-16.379-7.772-16.379,7.772,2.245-18.161-12.367-13.359,17.766-3.452,8.735-16.028"/>
    <rect id="Прямоугольник_скругл._углы_1-2" data-name="Прямоугольник, скругл. углы 1" class="cls-4" x="221" y="564" width="133" height="7" rx="1.5" ry="1.5"/>
    <rect id="Прямоугольник_скругл._углы_1_копия-2" data-name="Прямоугольник, скругл. углы 1 копия" class="cls-4" x="447" y="564" width="133" height="7" rx="1.5" ry="1.5"/>
  </g>
  <text id="Money_Back" data-name="Money Back" class="cls-5" x="397.111" y="436.99"><tspan x="397.111">Money Back</tspan></text>
  <text id="Guarantee" class="cls-6" x="399.858" y="514.996"><tspan x="399.858">Guarantee</tspan></text>
  <text id="_100_" data-name="100%" class="cls-7" x="397.435" y="348.135"><tspan x="397.435">100%</tspan></text>
</svg>
